<?xml version="1.0" standalone="no"?>
<!DOCTYPE svg PUBLIC "-//W3C//DTD SVG 20010904//EN"
 "http://www.w3.org/TR/2001/REC-SVG-20010904/DTD/svg10.dtd">
<svg version="1.0" xmlns="http://www.w3.org/2000/svg"
 width="512.000000pt" height="512.000000pt" viewBox="0 0 512.000000 512.000000"
 preserveAspectRatio="xMidYMid meet">

<g transform="translate(0.000000,512.000000) scale(0.100000,-0.100000)"
fill="#1E3050" stroke="none">
<path d="M1675 5006 l-1570 -111 -3 -35 c-3 -37 294 -4270 300 -4274 2 -2 67
1 145 7 l143 10 0 1858 0 1859 1760 0 1760 0 2 -1992 3 -1992 169 -18 c93 -10
171 -16 174 -13 7 7 467 4283 461 4288 -2 2 -371 43 -819 91 -448 48 -827 89
-841 92 -25 5 -27 8 -33 90 -3 46 -9 122 -12 169 l-7 85 -31 -1 c-17 -1 -737
-51 -1601 -113z"/>
<path d="M990 2010 l0 -2010 1460 0 1460 0 0 2010 0 2010 -1460 0 -1460 0 0
-2010z m1130 1304 c79 -23 146 -60 201 -111 27 -25 49 -49 49 -53 0 -4 -44
-46 -97 -93 l-97 -85 -44 39 c-45 39 -120 69 -173 69 -41 0 -111 -28 -143 -58
-71 -67 -89 -202 -40 -301 36 -71 86 -104 169 -109 79 -5 122 9 178 58 25 22
48 40 52 40 9 0 189 -160 194 -172 6 -18 -88 -96 -157 -131 -156 -78 -368 -75
-529 7 -64 32 -156 116 -190 173 -67 115 -85 283 -44 415 23 73 89 169 149
216 137 108 343 146 522 96z m587 -6 c5 -7 56 -128 113 -268 57 -140 106 -258
110 -262 3 -5 50 99 105 230 54 130 107 254 117 275 l18 37 150 0 c101 0 150
-4 150 -11 0 -6 -88 -220 -196 -475 l-197 -464 -156 0 -157 0 -193 458 c-107
251 -196 465 -199 475 -4 16 8 17 161 17 120 0 167 -3 174 -12z m723 -1458 l0
-150 -980 0 -980 0 0 150 0 150 980 0 980 0 0 -150z m0 -530 l0 -150 -980 0
-980 0 0 150 0 150 980 0 980 0 0 -150z m-2 -537 l-3 -148 -977 -3 -978 -2 0
150 0 150 980 0 981 0 -3 -147z"/>
</g>
</svg>
