<?xml version="1.0" encoding="UTF-8"?>
<!DOCTYPE svg PUBLIC "-//W3C//DTD SVG 1.1//EN" "http://www.w3.org/Graphics/SVG/1.1/DTD/svg11.dtd">
<svg xmlns="http://www.w3.org/2000/svg" version="1.1" width="511px" height="512px" style="shape-rendering:geometricPrecision; text-rendering:geometricPrecision; image-rendering:optimizeQuality; fill-rule:evenodd; clip-rule:evenodd" xmlns:xlink="http://www.w3.org/1999/xlink">
<g><path style="opacity:0.985" fill="#1E3050" d="M 42.5,-0.5 C 184.5,-0.5 326.5,-0.5 468.5,-0.5C 489.938,6.6038 503.938,20.9371 510.5,42.5C 510.5,184.833 510.5,327.167 510.5,469.5C 503.368,490.967 489.034,504.967 467.5,511.5C 325.833,511.5 184.167,511.5 42.5,511.5C 28.5601,507.767 17.0601,500.1 8,488.5C 4.31554,482.802 1.48221,476.802 -0.5,470.5C -0.5,327.167 -0.5,183.833 -0.5,40.5C 1.48221,34.1977 4.31554,28.1977 8,22.5C 17.0601,10.8998 28.5601,3.23316 42.5,-0.5 Z M 137.5,123.5 C 206.833,123.5 276.167,123.5 345.5,123.5C 356.332,153.487 363.665,184.154 367.5,215.5C 361.87,198.649 356.704,181.649 352,164.5C 347.229,159.864 341.729,156.364 335.5,154C 331.8,149.965 327.8,146.298 323.5,143C 321.913,142.138 320.246,141.471 318.5,141C 283.158,140.288 247.824,140.622 212.5,142C 205.083,148.413 197.917,155.246 191,162.5C 194.895,176.19 199.228,189.857 204,203.5C 214.824,239.766 218.491,276.766 215,314.5C 208.187,311.022 203.52,305.688 201,298.5C 199.33,280.138 197.33,261.804 195,243.5C 190.361,223.271 184.027,203.604 176,184.5C 169.507,171.512 162.507,158.845 155,146.5C 148.543,139.222 142.709,131.556 137.5,123.5 Z M 102.5,148.5 C 112.705,147.18 123.039,147.18 133.5,148.5C 157.062,183.641 173.562,221.975 183,263.5C 184.943,272.427 185.943,281.427 186,290.5C 168.665,236.74 140.831,189.407 102.5,148.5 Z M 81.5,185.5 C 90.8393,185.334 100.173,185.5 109.5,186C 127.312,205.141 142.812,225.974 156,248.5C 160.27,257.69 163.937,267.023 167,276.5C 150.286,254.782 131.786,234.615 111.5,216C 100.058,206.105 88.3908,196.439 76.5,187C 78.3817,186.802 80.0484,186.302 81.5,185.5 Z M 423.5,212.5 C 409.914,221.566 395.914,230.066 381.5,238C 370.512,246.162 359.179,253.828 347.5,261C 330.629,272.604 314.295,284.938 298.5,298C 267.838,324.49 240.172,353.657 215.5,385.5C 203.137,366.968 190.97,348.302 179,329.5C 169.945,314.616 161.111,299.616 152.5,284.5C 170.949,299.897 189.616,315.064 208.5,330C 211.702,331.483 215.036,331.817 218.5,331C 275.918,286.013 338.251,248.68 405.5,219C 411.497,216.724 417.497,214.557 423.5,212.5 Z"/></g>
</svg>
